<svg width="176" height="176" viewBox="0 0 176 176" fill="none" xmlns="http://www.w3.org/2000/svg">
<path d="M88 0.5C39.6797 0.5 0.5 39.6797 0.5 88C0.5 136.32 39.6797 175.5 88 175.5C136.32 175.5 175.5 136.32 175.5 88C175.5 39.6797 136.32 0.5 88 0.5ZM88 160.656C47.8828 160.656 15.3438 128.117 15.3438 88C15.3438 47.8828 47.8828 15.3438 88 15.3438C128.117 15.3438 160.656 47.8828 160.656 88C160.656 128.117 128.117 160.656 88 160.656Z" fill="#223945"/>
<path d="M88 15.3437C47.8828 15.3437 15.3438 47.8828 15.3438 87.9999C15.3438 128.117 47.8828 160.656 88 160.656C128.117 160.656 160.656 128.117 160.656 87.9999C160.656 47.8828 128.117 15.3437 88 15.3437ZM44.25 70.2265C44.3001 67.7732 45.3098 65.4373 47.0625 63.7201C48.8152 62.0028 51.1712 61.0409 53.625 61.0409C56.0788 61.0409 58.4348 62.0028 60.1875 63.7201C61.9402 65.4373 62.9499 67.7732 63 70.2265C62.9499 72.6798 61.9402 75.0157 60.1875 76.733C58.4348 78.4502 56.0788 79.4121 53.625 79.4121C51.1712 79.4121 48.8152 78.4502 47.0625 76.733C45.3098 75.0157 44.3001 72.6798 44.25 70.2265ZM88 123.352C71.3008 123.352 57.6094 110.207 56.75 93.7421C56.7394 93.5305 56.772 93.3189 56.8457 93.1202C56.9195 92.9215 57.0329 92.7399 57.1791 92.5864C57.3252 92.4329 57.5011 92.3108 57.6959 92.2274C57.8908 92.1441 58.1006 92.1012 58.3125 92.1015H67.707C68.5273 92.1015 69.2305 92.7265 69.2891 93.5468C70.0313 103.215 78.1367 110.852 88 110.852C97.8633 110.852 105.988 103.215 106.711 93.5468C106.77 92.7265 107.473 92.1015 108.293 92.1015H117.688C117.899 92.1012 118.109 92.1441 118.304 92.2274C118.499 92.3108 118.675 92.4329 118.821 92.5864C118.967 92.7399 119.08 92.9215 119.154 93.1202C119.228 93.3189 119.261 93.5305 119.25 93.7421C118.391 110.207 104.699 123.352 88 123.352ZM122.375 79.6015C119.922 79.5514 117.586 78.5417 115.869 76.789C114.151 75.0363 113.189 72.6803 113.189 70.2265C113.189 67.7727 114.151 65.4167 115.869 63.664C117.586 61.9113 119.922 60.9016 122.375 60.8515C124.828 60.9016 127.164 61.9113 128.881 63.664C130.599 65.4167 131.561 67.7727 131.561 70.2265C131.561 72.6803 130.599 75.0363 128.881 76.789C127.164 78.5417 124.828 79.5514 122.375 79.6015Z" fill="#C8E1EA"/>
<path d="M44.25 70.2266C44.25 72.713 45.2377 75.0976 46.9959 76.8558C48.754 78.6139 51.1386 79.6016 53.625 79.6016C56.1114 79.6016 58.496 78.6139 60.2541 76.8558C62.0123 75.0976 63 72.713 63 70.2266C63 67.7402 62.0123 65.3556 60.2541 63.5975C58.496 61.8393 56.1114 60.8516 53.625 60.8516C51.1386 60.8516 48.754 61.8393 46.9959 63.5975C45.2377 65.3556 44.25 67.7402 44.25 70.2266ZM117.688 92.1016H108.293C107.473 92.1016 106.77 92.7266 106.711 93.5469C105.988 103.215 97.8633 110.852 88 110.852C78.1367 110.852 70.0313 103.215 69.2891 93.5469C69.2305 92.7266 68.5273 92.1016 67.707 92.1016H58.3125C58.1006 92.1014 57.8908 92.1442 57.6959 92.2276C57.5011 92.3109 57.3252 92.4331 57.1791 92.5865C57.0329 92.74 56.9195 92.9216 56.8457 93.1203C56.772 93.319 56.7394 93.5306 56.75 93.7423C57.6094 110.207 71.3008 123.352 88 123.352C104.699 123.352 118.391 110.207 119.25 93.7423C119.261 93.5306 119.228 93.319 119.154 93.1203C119.08 92.9216 118.967 92.74 118.821 92.5865C118.675 92.4331 118.499 92.3109 118.304 92.2276C118.109 92.1442 117.899 92.1014 117.688 92.1016ZM113 70.2266C113 72.713 113.988 75.0976 115.746 76.8558C117.504 78.6139 119.889 79.6016 122.375 79.6016C124.861 79.6016 127.246 78.6139 129.004 76.8558C130.762 75.0976 131.75 72.713 131.75 70.2266C131.75 67.7402 130.762 65.3556 129.004 63.5975C127.246 61.8393 124.861 60.8516 122.375 60.8516C119.889 60.8516 117.504 61.8393 115.746 63.5975C113.988 65.3556 113 67.7402 113 70.2266Z" fill="#223945"/>
</svg>
