<svg width="6866" height="1368" viewBox="0 0 6866 1368" fill="none" xmlns="http://www.w3.org/2000/svg">
<path d="M116 256H6751V496H116V256Z" fill="#c8e1ea"/>
<path d="M3312 0H3555V496H3312V0Z" fill="#c8e1ea"/>
<path d="M6508 256H6751V992H6508V256Z" fill="#c8e1ea"/>
<path d="M358 256H115V966H358V256Z" fill="#c8e1ea"/>
<path d="M474 1131C474 1261.89 367.891 1368 237 1368C106.109 1368 0 1261.89 0 1131C0 1000.11 106.109 894 237 894C367.891 894 474 1000.11 474 1131Z" fill="#c8e1ea"/>
<path d="M6866 1131C6866 1261.89 6759.89 1368 6629 1368C6498.11 1368 6392 1261.89 6392 1131C6392 1000.11 6498.11 894 6629 894C6759.89 894 6866 1000.11 6866 1131Z" fill="#c8e1ea"/>
</svg>
