<svg width="427" height="233" viewBox="0 0 427 233" fill="none" xmlns="http://www.w3.org/2000/svg">
<path d="M74.5 17.5C30.5 17.5 7.49997 64.5 5.49997 83C3.49997 101.5 25.5432 110.312 27.5 130.75C29.3197 149.756 8.13027 161.592 17 178.5C30.0344 203.347 61.9719 157.022 88 167.5C113.832 177.899 106.022 212.761 131.5 224C168.406 240.281 188.214 190.55 228.5 188.5C268.087 186.485 294.203 235.262 327 213C344.434 201.166 335.695 173.131 356 167.5C369.617 163.724 377.801 177.965 391.5 174.5C415.129 168.524 420.363 143.865 421 119.5C421.63 95.3967 410.075 82.3181 395 63.5C376.647 40.5896 362.148 24.4786 333 21C307.427 17.948 295.723 41.7846 270 40.5C239.649 38.9843 230.875 6.42759 200.5 5.5C171.433 4.61235 160.576 33.0091 131.5 33.5C108.383 33.8903 118.5 17.5 74.5 17.5Z" stroke="#C8E1EA" stroke-width="10"/>
</svg>
