<svg width="6867" height="1368" viewBox="0 0 6867 1368" fill="none" xmlns="http://www.w3.org/2000/svg">
<path d="M6867 684C6867 816.548 6759.55 924 6627 924C6494.45 924 6387 816.548 6387 684C6387 551.452 6494.45 444 6627 444C6759.55 444 6867 551.452 6867 684Z" fill="#D9D9D9"/>
<path d="M480 684C480 816.548 372.548 924 240 924C107.452 924 0 816.548 0 684C0 551.452 107.452 444 240 444C372.548 444 480 551.452 480 684Z" fill="#D9D9D9"/>
<path d="M3885 684C3885 933.633 3682.63 1136 3433 1136C3183.37 1136 2981 933.633 2981 684C2981 434.367 3183.37 232 3433 232C3682.63 232 3885 434.367 3885 684Z" fill="#D9D9D9"/>
<path d="M327 564H6539V804H327V564Z" fill="#D9D9D9"/>
<path d="M3555 1368H3311V0H3555V1368Z" fill="#D9D9D9"/>
</svg>
