<svg width="121" height="135" viewBox="0 0 121 135" fill="none" xmlns="http://www.w3.org/2000/svg">
<path d="M57.0033 135.24C37.0933 124.63 21.7933 113.58 11.7933 94.09C1.08329 73.27 -2.20671 44.64 1.41329 4L1.77329 0H119.213L119.573 4.08C123.203 45.02 119.933 73.71 109.283 94.36C99.2833 113.65 83.9033 124.66 63.8033 135.25L60.3933 137.05L57.0033 135.24Z" fill="white"/>
<path d="M117.003 2.47998H4.00348L3.88348 4.19998C0.313484 44.37 3.51348 72.58 14.0035 93C23.7135 111.92 38.6835 122.71 58.1735 133.1L60.4235 134.3L62.6835 133.11C82.3735 122.73 97.4535 112 107.113 93.27C117.503 73 120.693 44.75 117.113 4.26998L117.003 2.47998Z" fill="#00447C"/>
<path d="M112.623 7.53003H8.36321L8.22321 9.12003C4.92321 46.21 7.88321 72.25 17.5332 91.07C26.5332 108.54 40.3232 118.5 58.3232 128.07L60.4032 129.18L62.4832 128.08C80.6632 118.5 94.6032 108.58 103.483 91.3C113.113 72.63 116.053 46.54 112.743 9.19003L112.623 7.53003Z" fill="#FFD200"/>
<path d="M19.8835 36.89C20.3692 35.4349 21.1867 34.1127 22.2715 33.028C23.3562 31.9432 24.6784 31.1257 26.1335 30.64C24.6781 30.1519 23.3559 29.3324 22.2713 28.2461C21.1867 27.1597 20.3693 25.8362 19.8835 24.38C19.3989 25.8384 18.5806 27.1637 17.4939 28.2504C16.4072 29.3371 15.082 30.1553 13.6235 30.64C15.0816 31.1223 16.4069 31.9385 17.4938 33.0236C18.5806 34.1087 19.3989 35.4327 19.8835 36.89Z" fill="#00447C"/>
<path d="M95.2531 42.08C94.1196 42.0668 93.0372 41.6066 92.2413 40.7995C91.4454 39.9923 91.0004 38.9035 91.0031 37.77V18.49H85.5831V19.83H77.0031V18.49H71.5931V36.11C69.1727 33.6302 66.3321 31.5988 63.2031 30.11L60.6631 28.87L58.1231 30.11C54.9858 31.595 52.1381 33.6267 49.7131 36.11V18.49H44.3131V19.83H35.7231V18.49H30.3531V37.77C30.3544 38.3347 30.2445 38.8941 30.0296 39.4163C29.8147 39.9385 29.4991 40.4133 29.1007 40.8135C28.7023 41.2137 28.229 41.5315 27.7078 41.7488C27.1866 41.9662 26.6277 42.0787 26.0631 42.08H11.3931C11.433 50.1109 12.2332 58.12 13.7831 66C19.9231 98.89 37.2831 112.33 60.4131 124.64C83.8531 112.28 101.243 99.09 107.293 66C108.82 58.1212 109.597 50.1154 109.613 42.09L95.2531 42.08ZM80.4931 89.42C80.4931 89.42 82.4931 85.65 82.4931 83.03C82.4931 80.41 81.0031 78.87 78.1431 78.87C75.2831 78.87 67.3431 82.64 60.5531 109.48C53.7131 82.64 45.7431 78.87 42.9131 78.87C40.0831 78.87 38.5531 80.39 38.5531 83C38.5531 85.61 40.4431 89.27 40.5531 89.39C38.0776 89.3895 35.6381 88.7972 33.438 87.6625C31.2379 86.5279 29.3409 84.8837 27.9052 82.8671C26.4694 80.8505 25.5366 78.5199 25.1844 76.0697C24.8321 73.6194 25.0708 71.1204 25.8803 68.7811C26.6899 66.4417 28.047 64.3298 29.8384 62.6214C31.6299 60.9129 33.8037 59.6575 36.1788 58.9597C38.5539 58.2619 41.0614 58.142 43.4922 58.61C45.9231 59.078 48.2068 60.1203 50.1531 61.65C50.1531 61.65 44.6531 47.47 60.5531 39.65C76.4531 47.45 70.9431 61.65 70.9431 61.65C72.8893 60.1203 75.1731 59.078 77.6039 58.61C80.0347 58.142 82.5422 58.2619 84.9173 58.9597C87.2924 59.6575 89.4663 60.9129 91.2577 62.6214C93.0491 64.3298 94.4062 66.4417 95.2158 68.7811C96.0254 71.1204 96.264 73.6194 95.9118 76.0697C95.5596 78.5199 94.6267 80.8505 93.191 82.8671C91.7552 84.8837 89.8582 86.5279 87.6581 87.6625C85.458 88.7972 83.0185 89.3895 80.5431 89.39L80.4931 89.42Z" fill="#00447C"/>
<path d="M81.2334 63.5C71.1334 63.5 65.6334 73.94 65.6334 73.94C70.6334 58.86 64.6334 53.01 60.5034 50.83C56.3534 53.01 50.3634 58.83 55.3734 73.94C55.3734 73.94 49.8634 63.5 39.7734 63.5C32.2134 63.5 29.1934 72.77 35.4134 79C35.4134 79 36.5334 72.92 42.6134 72.92C51.1334 72.92 55.8034 82.18 60.5034 95.27C65.2034 82.18 69.8634 72.92 78.3934 72.92C84.4734 72.92 85.5834 79 85.5834 79C91.8134 72.77 88.7934 63.5 81.2334 63.5Z" fill="#00447C"/>
<path d="M60.5535 24.53C61.0391 23.0749 61.8567 21.7527 62.9414 20.6679C64.0261 19.5832 65.3483 18.7657 66.8035 18.28C65.344 17.7934 64.0186 16.972 62.9333 15.8816C61.8481 14.7911 61.0331 13.4618 60.5535 12C60.0709 13.4596 59.2534 14.7859 58.1664 15.8729C57.0794 16.9599 55.753 17.7774 54.2935 18.26C55.7537 18.7443 57.0804 19.5635 58.1674 20.6523C59.2544 21.741 60.0715 23.069 60.5535 24.53Z" fill="#00447C"/>
<path d="M103.364 37C103.849 35.5449 104.667 34.2227 105.751 33.1379C106.836 32.0532 108.158 31.2357 109.614 30.75C108.156 30.2654 106.832 29.4471 105.747 28.3602C104.662 27.2734 103.846 25.9481 103.364 24.49C102.881 25.9495 102.063 27.2759 100.976 28.3629C99.8894 29.4499 98.5631 30.2674 97.1035 30.75C98.5616 31.2323 99.8869 32.0485 100.974 33.1336C102.061 34.2187 102.879 35.5427 103.364 37Z" fill="#00447C"/>
</svg>
