<svg width="292" height="664" viewBox="0 0 292 664" fill="none" xmlns="http://www.w3.org/2000/svg">
<path d="M231 369C159.525 299.166 124.903 311.251 67 369C67 369 83 446 137 444C191 442 231 369 231 369Z" fill="#C8E1EA" stroke="#C8E1EA"/>
<path d="M70 4H222C252.928 4 278 29.0721 278 60V255C278 308.019 235.019 351 182 351H110C56.9807 351 14 308.019 14 255V60C14 29.0721 39.0721 4 70 4Z" fill="#EDF5F8" stroke="#C8E1EA" stroke-width="8"/>
<circle cx="172" cy="139" r="31" fill="#C8E1EA"/>
<path d="M180.396 116.694C192.07 122.955 196.105 127.627 197.396 138.694" stroke="#EDF5F8" stroke-width="5"/>
<circle cx="124.5" cy="191.5" r="26.5" fill="#C8E1EA"/>
<path d="M129.677 172.432C139.657 177.784 143.106 181.778 144.209 191.239" stroke="#EDF5F8" stroke-width="4"/>
<circle cx="163.5" cy="237.5" r="14.5" fill="#C8E1EA"/>
<path d="M165.427 228.067C170.888 230.995 172.775 233.18 173.379 238.357" stroke="#EDF5F8" stroke-width="2"/>
<circle cx="179.5" cy="198.5" r="14.5" fill="#C8E1EA"/>
<path d="M181.427 189.067C186.888 191.995 188.775 194.18 189.379 199.357" stroke="#EDF5F8" stroke-width="2"/>
<mask id="path-11-inside-1_73_8" fill="white">
<path d="M0 366H292V712H0V366Z"/>
</mask>
<path d="M0 366H292V712H0V366Z" fill="#C8E1EA"/>
<path d="M0 366V358H-8V366H0ZM292 366H300V358H292V366ZM0 374H292V358H0V374ZM284 366V712H300V366H284ZM8 712V366H-8V712H8Z" fill="#C8E1EA" mask="url(#path-11-inside-1_73_8)"/>
</svg>
