<svg width="292" height="664" viewBox="0 0 292 664" fill="none" xmlns="http://www.w3.org/2000/svg">
<path d="M0 366H292V712H0V366Z" fill="#EDF5F8"/>
<path d="M145 274L258.449 370.75H31.5507L145 274Z" fill="#EDF5F8"/>
<path d="M10 60C10 26.8629 36.8629 0 70 0H222C255.137 0 282 26.8629 282 60V255C282 310.228 237.228 355 182 355H110C54.7715 355 10 310.228 10 255V60Z" fill="#EDF5F8"/>
<path d="M108 444C113.523 444 118 439.747 118 434.5C118 429.253 113.523 425 108 425C102.477 425 98 429.253 98 434.5C98 439.747 102.477 444 108 444Z" fill="#223945"/>
<path d="M146 444C151.523 444 156 439.747 156 434.5C156 429.253 151.523 425 146 425C140.477 425 136 429.253 136 434.5C136 439.747 140.477 444 146 444Z" fill="#223945"/>
<path d="M188 444C193.523 444 198 439.747 198 434.5C198 429.253 193.523 425 188 425C182.477 425 178 429.253 178 434.5C178 439.747 182.477 444 188 444Z" fill="#223945"/>
<circle cx="172" cy="139" r="31" fill="#C8E1EA"/>
<path d="M180.396 116.694C192.07 122.955 196.105 127.627 197.396 138.694" stroke="#EDF5F8" stroke-width="5"/>
<circle cx="124.5" cy="191.5" r="26.5" fill="#C8E1EA"/>
<path d="M129.677 172.432C139.657 177.784 143.106 181.778 144.209 191.239" stroke="#EDF5F8" stroke-width="4"/>
<circle cx="163.5" cy="237.5" r="14.5" fill="#C8E1EA"/>
<path d="M165.427 228.067C170.888 230.995 172.775 233.18 173.379 238.357" stroke="#EDF5F8" stroke-width="2"/>
<circle cx="179.5" cy="198.5" r="14.5" fill="#C8E1EA"/>
<path d="M181.427 189.067C186.888 191.995 188.775 194.18 189.379 199.357" stroke="#EDF5F8" stroke-width="2"/>
</svg>
