<svg width="177" height="177" viewBox="0 0 177 177" fill="none" xmlns="http://www.w3.org/2000/svg">
<path d="M0 5C0 2.23858 2.23858 0 5 0H80C82.7614 0 85 2.23858 85 5V80C85 82.7614 82.7614 85 80 85H5C2.23858 85 0 82.7614 0 80V5Z" fill="#F4F9FB"/>
<path d="M0 97C0 94.2386 2.23858 92 5 92H80C82.7614 92 85 94.2386 85 97V172C85 174.761 82.7614 177 80 177H5C2.23858 177 0 174.761 0 172V97Z" fill="#C8E1EA"/>
<path d="M92 97C92 94.2386 94.2386 92 97 92H172C174.761 92 177 94.2386 177 97V172C177 174.761 174.761 177 172 177H97C94.2386 177 92 174.761 92 172V97Z" fill="#F4F9FB"/>
<path d="M92 5C92 2.23858 94.2386 0 97 0H172C174.761 0 177 2.23858 177 5V80C177 82.7614 174.761 85 172 85H97C94.2386 85 92 82.7614 92 80V5Z" fill="#C8E1EA"/>
<path d="M152 92C152 126.794 123.794 155 89 155C54.2061 155 26 126.794 26 92C26 57.2061 54.2061 29 89 29C123.794 29 152 57.2061 152 92Z" fill="white"/>
<path d="M67.5645 70.5161L74.2661 91.3535L88.8779 71.7612C89.3662 71.1021 89.7446 70.6748 90.0132 70.4795C90.2817 70.2842 90.5747 70.1865 90.8921 70.1865C91.2095 70.1865 91.5146 70.2842 91.8076 70.4795C92.1006 70.6504 92.479 71.0776 92.9429 71.7612L106.566 91.1338L113.158 70.5161H134.105L114.989 127.499C114.598 128.695 114 129.598 113.194 130.208C112.413 130.843 111.559 131.161 110.631 131.161C108.727 131.161 107.005 130.038 105.467 127.792L89.0977 104.171L71.4829 127.865C70.7505 128.841 69.9326 129.61 69.0293 130.172C68.1504 130.733 67.2593 131.014 66.356 131.014C65.4526 131.014 64.5981 130.721 63.7925 130.135C63.0112 129.574 62.3765 128.646 61.8882 127.352L41.3071 70.5161H67.5645Z" fill="#C8E1EA"/>
</svg>
