<svg width="78" height="124" viewBox="0 0 78 124" fill="none" xmlns="http://www.w3.org/2000/svg">
<path d="M49.0999 23.4C48.2999 21.1 47.3999 18.7 47.2999 16.2C47.0999 13.6 48.0999 11 49.8999 9.1C50.0999 8.8 50.4999 8.6 50.8999 8.5C51.1999 8.7 51.2999 9.1 51.1999 9.4C51.0999 12.1 51.9999 14.7 53.5999 16.8C55.1999 19 56.9999 21.1 58.3999 23.4C59.7999 25.6 60.4999 28.2 60.3999 30.8C60.3999 33.9 58.8999 36.9 56.3999 38.7C54.4999 40.2 52.3999 41.6 50.3999 43.1C48.3999 44.5 46.5999 46.2 45.0999 48.1C44.9999 48.2 44.8999 48.3 44.6999 48.3C44.1999 47 44.0999 45.6 44.4999 44.3C44.9999 42.1 46.0999 40.2 46.9999 38.2C48.0999 35.8 49.1999 33.3 49.6999 30.7C50.2999 28.2 49.9999 25.7 49.0999 23.4ZM17.9999 26.5C18.0999 28.6 18.8999 29.7 20.7999 30.7C22.9999 31.8 25.3999 32.5 27.7999 33.4C30.7999 34.5 33.5999 35.7 35.8999 38.1C38.3999 40.7 38.8999 44.2 38.0999 47.6C37.8999 47.6 37.5999 47.5 37.4999 47.3C36.5999 46.3 35.5999 45.4 34.5999 44.6C33.0999 43.5 31.1999 43.2 29.4999 42.6C27.1999 41.9 24.7999 41.2 22.8999 39.7C19.2999 37.1 16.6999 33.5 16.1999 28.9C16.0999 26.9 16.7999 25 18.0999 23.6C17.9999 24.4 17.9999 25.7 17.9999 26.5ZM22.6999 49.7H54.8999V56.2C54.8999 56.2 44.2999 59.8 40.4999 61.3C39.8999 61.6 39.1999 61.6 38.4999 61.3C34.4999 59.7 22.6999 55.9 22.6999 55.9V49.7Z" fill="#333192"/>
<path d="M14.6999 4C15.1999 2.3 16.3999 1.1 18.0999 0C18.1999 1 18.2999 2 18.4999 2.9C19.4999 6 21.7999 8.3 24.4999 10C27.3999 11.8 30.2999 12.9 33.2999 14.3C35.9999 15.5 38.5999 17.1 40.8999 19.1C44.2999 22.1 45.8999 26.1 46.0999 30.7C46.3999 35.9 45.0999 41 42.2999 45.4C40.9999 47.5 40.2999 47.5 39.4999 48.1C39.1999 48.3 39.5999 48.3 39.0999 48.3C39.3999 47.6 39.5999 46.8 39.6999 46.1C40.5999 41 38.8999 36.7 34.8999 33.6C31.6999 31.2 28.3999 29 25.2999 26.5C20.4999 22.6 16.9999 17.4 15.0999 11.6C14.2999 9 13.8999 6.5 14.6999 4ZM68.2999 123.6C68.5999 123.7 67.7999 123.8 68.2999 123.6C64.1999 122 58.9999 120.1 54.7999 118.8C48.7999 117 42.6999 116.6 36.3999 117C30.5999 117.3 24.7999 118.5 19.2999 120.4C16.3999 121.4 13.5999 122.6 10.7999 123.9C11.3999 123.9 10.4999 124.1 10.7999 123.9C6.7999 103.7 0.399902 62.1 0.399902 62.1H23.5999C23.1999 63.4 22.6999 65.1 22.2999 66.1C20.4999 71.2 19.8999 76.5 19.4999 81.8C19.1999 86.2 18.8999 90.6 18.9999 95C19.0999 98.8 19.6999 102.6 20.7999 106.3C21.4999 108.9 24.0999 110.4 26.6999 109.7C27.4999 109.5 28.1999 109.1 28.7999 108.5C30.2999 107.1 31.0999 105.2 31.0999 103.2C31.2999 98.7 31.7999 62.4 31.7999 62.4H46.9999C46.9999 62.4 47.2999 98.5 47.4999 103.4C47.4999 105.2 48.1999 106.8 49.3999 108.2C51.5999 110.8 55.2999 110.4 57.3999 107.4C58.7999 105.4 59.0999 103.1 59.2999 100.7C59.6999 95.5 59.6999 90.2 59.3999 85C58.8999 77.3 57.2999 69.7 54.5999 62.5C54.4999 62.3 77.7999 62.5 77.7999 62.5C77.7999 62.5 71.1999 103.5 68.2999 123.6Z" fill="#333192"/>
</svg>
